<svg xmlns="http://www.w3.org/2000/svg" xmlns:xlink="http://www.w3.org/1999/xlink" width="60" zoomAndPan="magnify" viewBox="0 0 45 30.000001" height="40" preserveAspectRatio="xMidYMid meet" version="1.0"><defs><g/></defs><g fill="#000000" fill-opacity="1"><g transform="translate(2.26134, 13.606247)"><g/></g></g><g fill="#000000" fill-opacity="1"><g transform="translate(4.054566, 13.606247)"><g><path d="M 4.796875 -8.265625 L 8.125 0 L 6.109375 0 L 5.5 -1.65625 L 2.359375 -1.65625 L 1.75 0 L -0.28125 0 L 3.0625 -8.265625 Z M 4.859375 -3.3125 L 3.9375 -5.703125 L 3.921875 -5.703125 L 3 -3.3125 Z M 4.859375 -3.3125 "/></g></g></g><g fill="#000000" fill-opacity="1"><g transform="translate(10.967185, 13.606247)"><g><path d="M 0.59375 -8.265625 L 3.171875 -8.265625 C 3.941406 -8.265625 4.554688 -8.097656 5.015625 -7.765625 C 5.472656 -7.429688 5.703125 -6.894531 5.703125 -6.15625 C 5.703125 -5.332031 5.359375 -4.742188 4.671875 -4.390625 C 5.847656 -4.179688 6.4375 -3.484375 6.4375 -2.296875 C 6.4375 -1.609375 6.195312 -1.050781 5.71875 -0.625 C 5.238281 -0.207031 4.578125 0 3.734375 0 L 0.59375 0 Z M 2.484375 -5.03125 L 2.640625 -5.03125 C 3.054688 -5.03125 3.367188 -5.101562 3.578125 -5.25 C 3.785156 -5.394531 3.890625 -5.632812 3.890625 -5.96875 C 3.890625 -6.53125 3.472656 -6.8125 2.640625 -6.8125 L 2.484375 -6.8125 Z M 2.484375 -1.453125 L 3.078125 -1.453125 C 3.992188 -1.453125 4.453125 -1.757812 4.453125 -2.375 C 4.453125 -2.738281 4.335938 -3 4.109375 -3.15625 C 3.878906 -3.320312 3.535156 -3.40625 3.078125 -3.40625 L 2.484375 -3.40625 Z M 2.484375 -1.453125 "/></g></g></g><g fill="#000000" fill-opacity="1"><g transform="translate(16.697598, 13.606247)"><g><path d="M 3.640625 -8.40625 C 4.085938 -8.40625 4.523438 -8.335938 4.953125 -8.203125 C 5.378906 -8.078125 5.695312 -7.953125 5.90625 -7.828125 L 6.203125 -7.625 L 5.453125 -6.125 C 5.390625 -6.164062 5.300781 -6.21875 5.1875 -6.28125 C 5.082031 -6.34375 4.882812 -6.425781 4.59375 -6.53125 C 4.300781 -6.644531 4.03125 -6.703125 3.78125 -6.703125 C 3.46875 -6.703125 3.222656 -6.632812 3.046875 -6.5 C 2.878906 -6.363281 2.796875 -6.179688 2.796875 -5.953125 C 2.796875 -5.847656 2.832031 -5.742188 2.90625 -5.640625 C 2.988281 -5.546875 3.125 -5.441406 3.3125 -5.328125 C 3.507812 -5.222656 3.679688 -5.132812 3.828125 -5.0625 C 3.984375 -5 4.210938 -4.898438 4.515625 -4.765625 C 5.046875 -4.535156 5.5 -4.222656 5.875 -3.828125 C 6.257812 -3.441406 6.453125 -3.003906 6.453125 -2.515625 C 6.453125 -2.035156 6.363281 -1.617188 6.1875 -1.265625 C 6.019531 -0.910156 5.785156 -0.632812 5.484375 -0.4375 C 5.191406 -0.238281 4.863281 -0.09375 4.5 0 C 4.144531 0.101562 3.753906 0.15625 3.328125 0.15625 C 2.972656 0.15625 2.617188 0.117188 2.265625 0.046875 C 1.921875 -0.0234375 1.628906 -0.117188 1.390625 -0.234375 C 1.160156 -0.347656 0.953125 -0.457031 0.765625 -0.5625 C 0.578125 -0.664062 0.441406 -0.753906 0.359375 -0.828125 L 0.234375 -0.9375 L 1.171875 -2.53125 C 1.253906 -2.457031 1.363281 -2.367188 1.5 -2.265625 C 1.644531 -2.160156 1.894531 -2.019531 2.25 -1.84375 C 2.601562 -1.675781 2.914062 -1.59375 3.1875 -1.59375 C 3.988281 -1.59375 4.390625 -1.863281 4.390625 -2.40625 C 4.390625 -2.519531 4.359375 -2.625 4.296875 -2.71875 C 4.242188 -2.8125 4.144531 -2.90625 4 -3 C 3.851562 -3.101562 3.722656 -3.179688 3.609375 -3.234375 C 3.503906 -3.296875 3.328125 -3.382812 3.078125 -3.5 C 2.828125 -3.613281 2.644531 -3.703125 2.53125 -3.765625 C 2.019531 -4.015625 1.628906 -4.320312 1.359375 -4.6875 C 1.085938 -5.0625 0.953125 -5.460938 0.953125 -5.890625 C 0.953125 -6.628906 1.222656 -7.234375 1.765625 -7.703125 C 2.316406 -8.171875 2.941406 -8.40625 3.640625 -8.40625 Z M 3.640625 -8.40625 "/></g></g></g><g fill="#000000" fill-opacity="1"><g transform="translate(22.488124, 13.606247)"><g><path d="M 8.078125 -4.625 L 8.078125 -2.828125 C 7.859375 -1.847656 7.390625 -1.101562 6.671875 -0.59375 C 5.953125 -0.09375 5.144531 0.15625 4.25 0.15625 C 3.132812 0.15625 2.1875 -0.257812 1.40625 -1.09375 C 0.625 -1.9375 0.234375 -2.945312 0.234375 -4.125 C 0.234375 -5.320312 0.613281 -6.332031 1.375 -7.15625 C 2.144531 -7.988281 3.101562 -8.40625 4.25 -8.40625 C 5.59375 -8.40625 6.65625 -7.9375 7.4375 -7 L 6.203125 -5.65625 C 5.765625 -6.351562 5.148438 -6.703125 4.359375 -6.703125 C 3.785156 -6.703125 3.289062 -6.453125 2.875 -5.953125 C 2.46875 -5.453125 2.265625 -4.84375 2.265625 -4.125 C 2.265625 -3.425781 2.46875 -2.828125 2.875 -2.328125 C 3.289062 -1.828125 3.785156 -1.578125 4.359375 -1.578125 C 4.847656 -1.578125 5.269531 -1.722656 5.625 -2.015625 C 5.976562 -2.304688 6.15625 -2.691406 6.15625 -3.171875 L 4.25 -3.171875 L 4.25 -4.625 Z M 8.078125 -4.625 "/></g></g></g><g fill="#000000" fill-opacity="1"><g transform="translate(29.851583, 13.606247)"><g><path d="M 0.078125 -6.609375 L 0.078125 -8.265625 L 5.890625 -8.265625 L 5.890625 -6.609375 L 3.921875 -6.609375 L 3.921875 0 L 2.046875 0 L 2.046875 -6.609375 Z M 0.078125 -6.609375 "/></g></g></g><g fill="#000000" fill-opacity="1"><g transform="translate(34.880689, 13.606247)"><g><path d="M 4.796875 -8.265625 L 8.125 0 L 6.109375 0 L 5.5 -1.65625 L 2.359375 -1.65625 L 1.75 0 L -0.28125 0 L 3.0625 -8.265625 Z M 4.859375 -3.3125 L 3.9375 -5.703125 L 3.921875 -5.703125 L 3 -3.3125 Z M 4.859375 -3.3125 "/></g></g></g><g fill="#000000" fill-opacity="1"><g transform="translate(7.1117, 16.661269)"><g><path d="M 0.84375 -1.625 C 0.925781 -1.625 1 -1.601562 1.0625 -1.5625 C 1.132812 -1.519531 1.191406 -1.457031 1.234375 -1.375 C 1.273438 -1.300781 1.296875 -1.21875 1.296875 -1.125 C 1.296875 -1.039062 1.273438 -0.957031 1.234375 -0.875 C 1.191406 -0.800781 1.132812 -0.738281 1.0625 -0.6875 C 1 -0.644531 0.925781 -0.625 0.84375 -0.625 L 0.40625 -0.625 L 0.40625 -0.109375 C 0.40625 -0.078125 0.394531 -0.0507812 0.375 -0.03125 C 0.351562 -0.0078125 0.328125 0 0.296875 0 C 0.265625 0 0.238281 -0.0078125 0.21875 -0.03125 C 0.195312 -0.0507812 0.1875 -0.078125 0.1875 -0.109375 L 0.1875 -1.515625 C 0.1875 -1.546875 0.195312 -1.570312 0.21875 -1.59375 C 0.25 -1.613281 0.28125 -1.625 0.3125 -1.625 Z M 0.84375 -0.84375 C 0.882812 -0.84375 0.921875 -0.851562 0.953125 -0.875 C 0.992188 -0.90625 1.023438 -0.941406 1.046875 -0.984375 C 1.066406 -1.023438 1.078125 -1.070312 1.078125 -1.125 C 1.078125 -1.207031 1.050781 -1.273438 1 -1.328125 C 0.957031 -1.390625 0.90625 -1.421875 0.84375 -1.421875 L 0.40625 -1.421875 L 0.40625 -0.84375 Z M 0.84375 -0.84375 "/></g></g></g><g fill="#000000" fill-opacity="1"><g transform="translate(8.651892, 16.661269)"><g><path d="M 0.765625 -1.25 C 0.804688 -1.25 0.84375 -1.238281 0.875 -1.21875 C 0.90625 -1.195312 0.921875 -1.171875 0.921875 -1.140625 C 0.921875 -1.097656 0.910156 -1.066406 0.890625 -1.046875 C 0.867188 -1.035156 0.847656 -1.03125 0.828125 -1.03125 C 0.804688 -1.03125 0.785156 -1.03125 0.765625 -1.03125 C 0.722656 -1.039062 0.695312 -1.046875 0.6875 -1.046875 C 0.632812 -1.046875 0.582031 -1.03125 0.53125 -1 C 0.488281 -0.96875 0.453125 -0.921875 0.421875 -0.859375 C 0.398438 -0.804688 0.390625 -0.742188 0.390625 -0.671875 L 0.390625 -0.109375 C 0.390625 -0.078125 0.378906 -0.0507812 0.359375 -0.03125 C 0.335938 -0.0078125 0.3125 0 0.28125 0 C 0.238281 0 0.207031 -0.0078125 0.1875 -0.03125 C 0.175781 -0.0507812 0.171875 -0.078125 0.171875 -0.109375 L 0.171875 -1.109375 C 0.171875 -1.140625 0.179688 -1.164062 0.203125 -1.1875 C 0.222656 -1.207031 0.25 -1.21875 0.28125 -1.21875 C 0.3125 -1.21875 0.335938 -1.207031 0.359375 -1.1875 C 0.378906 -1.164062 0.390625 -1.140625 0.390625 -1.109375 L 0.390625 -0.984375 C 0.421875 -1.066406 0.46875 -1.128906 0.53125 -1.171875 C 0.601562 -1.222656 0.679688 -1.25 0.765625 -1.25 Z M 0.765625 -1.25 "/></g></g></g><g fill="#000000" fill-opacity="1"><g transform="translate(9.755722, 16.661269)"><g><path d="M 1.3125 -0.609375 C 1.3125 -0.484375 1.285156 -0.375 1.234375 -0.28125 C 1.179688 -0.1875 1.109375 -0.113281 1.015625 -0.0625 C 0.921875 -0.0078125 0.816406 0.015625 0.703125 0.015625 C 0.585938 0.015625 0.484375 -0.0078125 0.390625 -0.0625 C 0.296875 -0.113281 0.222656 -0.1875 0.171875 -0.28125 C 0.117188 -0.375 0.09375 -0.484375 0.09375 -0.609375 C 0.09375 -0.734375 0.117188 -0.84375 0.171875 -0.9375 C 0.222656 -1.03125 0.296875 -1.101562 0.390625 -1.15625 C 0.484375 -1.21875 0.585938 -1.25 0.703125 -1.25 C 0.816406 -1.25 0.921875 -1.21875 1.015625 -1.15625 C 1.109375 -1.101562 1.179688 -1.03125 1.234375 -0.9375 C 1.285156 -0.84375 1.3125 -0.734375 1.3125 -0.609375 Z M 1.09375 -0.609375 C 1.09375 -0.691406 1.078125 -0.765625 1.046875 -0.828125 C 1.015625 -0.898438 0.96875 -0.953125 0.90625 -0.984375 C 0.84375 -1.023438 0.773438 -1.046875 0.703125 -1.046875 C 0.628906 -1.046875 0.5625 -1.023438 0.5 -0.984375 C 0.445312 -0.953125 0.398438 -0.898438 0.359375 -0.828125 C 0.328125 -0.765625 0.3125 -0.691406 0.3125 -0.609375 C 0.3125 -0.523438 0.328125 -0.453125 0.359375 -0.390625 C 0.398438 -0.328125 0.445312 -0.273438 0.5 -0.234375 C 0.5625 -0.203125 0.628906 -0.1875 0.703125 -0.1875 C 0.773438 -0.1875 0.84375 -0.203125 0.90625 -0.234375 C 0.96875 -0.273438 1.015625 -0.328125 1.046875 -0.390625 C 1.078125 -0.453125 1.09375 -0.523438 1.09375 -0.609375 Z M 1.09375 -0.609375 "/></g></g></g><g fill="#000000" fill-opacity="1"><g transform="translate(11.309916, 16.661269)"><g><path d="M 0.6875 -1.515625 C 0.632812 -1.515625 0.59375 -1.5 0.5625 -1.46875 C 0.539062 -1.4375 0.53125 -1.398438 0.53125 -1.359375 L 0.53125 -1.203125 L 0.765625 -1.203125 C 0.796875 -1.203125 0.820312 -1.191406 0.84375 -1.171875 C 0.863281 -1.148438 0.875 -1.125 0.875 -1.09375 C 0.875 -1.0625 0.863281 -1.035156 0.84375 -1.015625 C 0.820312 -1.003906 0.796875 -1 0.765625 -1 L 0.53125 -1 L 0.53125 -0.109375 C 0.53125 -0.078125 0.519531 -0.0507812 0.5 -0.03125 C 0.476562 -0.0078125 0.453125 0 0.421875 0 C 0.390625 0 0.363281 -0.0078125 0.34375 -0.03125 C 0.320312 -0.0507812 0.3125 -0.078125 0.3125 -0.109375 L 0.3125 -1 L 0.171875 -1 C 0.140625 -1 0.113281 -1.003906 0.09375 -1.015625 C 0.0703125 -1.035156 0.0625 -1.0625 0.0625 -1.09375 C 0.0625 -1.125 0.0703125 -1.148438 0.09375 -1.171875 C 0.113281 -1.191406 0.140625 -1.203125 0.171875 -1.203125 L 0.3125 -1.203125 L 0.3125 -1.359375 C 0.3125 -1.472656 0.347656 -1.5625 0.421875 -1.625 C 0.492188 -1.6875 0.59375 -1.71875 0.71875 -1.71875 C 0.769531 -1.71875 0.816406 -1.707031 0.859375 -1.6875 C 0.898438 -1.664062 0.921875 -1.640625 0.921875 -1.609375 C 0.921875 -1.578125 0.910156 -1.550781 0.890625 -1.53125 C 0.867188 -1.507812 0.847656 -1.5 0.828125 -1.5 C 0.816406 -1.5 0.800781 -1.503906 0.78125 -1.515625 C 0.738281 -1.515625 0.707031 -1.515625 0.6875 -1.515625 Z M 0.6875 -1.515625 "/></g></g></g><g fill="#000000" fill-opacity="1"><g transform="translate(12.360076, 16.661269)"><g><path d="M 1.234375 -0.65625 C 1.234375 -0.625 1.222656 -0.597656 1.203125 -0.578125 C 1.179688 -0.566406 1.15625 -0.5625 1.125 -0.5625 L 0.3125 -0.5625 C 0.320312 -0.445312 0.363281 -0.351562 0.4375 -0.28125 C 0.507812 -0.21875 0.597656 -0.1875 0.703125 -0.1875 C 0.785156 -0.1875 0.847656 -0.195312 0.890625 -0.21875 C 0.941406 -0.238281 0.984375 -0.265625 1.015625 -0.296875 C 1.035156 -0.304688 1.054688 -0.3125 1.078125 -0.3125 C 1.109375 -0.3125 1.128906 -0.300781 1.140625 -0.28125 C 1.160156 -0.269531 1.171875 -0.25 1.171875 -0.21875 C 1.171875 -0.1875 1.15625 -0.160156 1.125 -0.140625 C 1.082031 -0.0859375 1.023438 -0.046875 0.953125 -0.015625 C 0.878906 0.00390625 0.800781 0.015625 0.71875 0.015625 C 0.59375 0.015625 0.484375 -0.0078125 0.390625 -0.0625 C 0.296875 -0.113281 0.222656 -0.1875 0.171875 -0.28125 C 0.117188 -0.375 0.09375 -0.476562 0.09375 -0.59375 C 0.09375 -0.726562 0.117188 -0.84375 0.171875 -0.9375 C 0.222656 -1.039062 0.289062 -1.117188 0.375 -1.171875 C 0.46875 -1.222656 0.566406 -1.25 0.671875 -1.25 C 0.765625 -1.25 0.851562 -1.222656 0.9375 -1.171875 C 1.03125 -1.117188 1.101562 -1.046875 1.15625 -0.953125 C 1.207031 -0.867188 1.234375 -0.769531 1.234375 -0.65625 Z M 0.671875 -1.046875 C 0.578125 -1.046875 0.5 -1.019531 0.4375 -0.96875 C 0.375 -0.914062 0.332031 -0.84375 0.3125 -0.75 L 1 -0.75 L 1 -0.765625 C 0.988281 -0.847656 0.953125 -0.914062 0.890625 -0.96875 C 0.828125 -1.019531 0.753906 -1.046875 0.671875 -1.046875 Z M 0.671875 -1.046875 "/></g></g></g><g fill="#000000" fill-opacity="1"><g transform="translate(13.830264, 16.661269)"><g><path d="M 0.09375 -0.1875 C 0.0820312 -0.207031 0.078125 -0.226562 0.078125 -0.25 C 0.078125 -0.28125 0.09375 -0.304688 0.125 -0.328125 C 0.132812 -0.335938 0.148438 -0.34375 0.171875 -0.34375 C 0.203125 -0.34375 0.226562 -0.332031 0.25 -0.3125 C 0.300781 -0.257812 0.351562 -0.21875 0.40625 -0.1875 C 0.457031 -0.164062 0.519531 -0.15625 0.59375 -0.15625 C 0.65625 -0.15625 0.707031 -0.164062 0.75 -0.1875 C 0.789062 -0.21875 0.8125 -0.265625 0.8125 -0.328125 C 0.8125 -0.378906 0.789062 -0.414062 0.75 -0.4375 C 0.707031 -0.46875 0.640625 -0.492188 0.546875 -0.515625 C 0.460938 -0.535156 0.390625 -0.554688 0.328125 -0.578125 C 0.273438 -0.609375 0.226562 -0.648438 0.1875 -0.703125 C 0.144531 -0.753906 0.125 -0.816406 0.125 -0.890625 C 0.125 -0.960938 0.144531 -1.023438 0.1875 -1.078125 C 0.226562 -1.128906 0.28125 -1.171875 0.34375 -1.203125 C 0.40625 -1.234375 0.476562 -1.25 0.5625 -1.25 C 0.632812 -1.25 0.707031 -1.234375 0.78125 -1.203125 C 0.851562 -1.179688 0.914062 -1.140625 0.96875 -1.078125 C 0.976562 -1.054688 0.984375 -1.035156 0.984375 -1.015625 C 0.984375 -0.984375 0.972656 -0.957031 0.953125 -0.9375 C 0.941406 -0.925781 0.921875 -0.921875 0.890625 -0.921875 C 0.867188 -0.921875 0.847656 -0.925781 0.828125 -0.9375 C 0.796875 -0.976562 0.753906 -1.007812 0.703125 -1.03125 C 0.660156 -1.050781 0.609375 -1.0625 0.546875 -1.0625 C 0.492188 -1.0625 0.445312 -1.046875 0.40625 -1.015625 C 0.363281 -0.992188 0.34375 -0.957031 0.34375 -0.90625 C 0.34375 -0.851562 0.363281 -0.8125 0.40625 -0.78125 C 0.457031 -0.757812 0.53125 -0.734375 0.625 -0.703125 C 0.707031 -0.679688 0.773438 -0.65625 0.828125 -0.625 C 0.878906 -0.601562 0.921875 -0.566406 0.953125 -0.515625 C 0.992188 -0.472656 1.015625 -0.410156 1.015625 -0.328125 C 1.015625 -0.253906 0.992188 -0.191406 0.953125 -0.140625 C 0.910156 -0.0859375 0.851562 -0.046875 0.78125 -0.015625 C 0.71875 0.00390625 0.648438 0.015625 0.578125 0.015625 C 0.484375 0.015625 0.394531 0 0.3125 -0.03125 C 0.226562 -0.0625 0.15625 -0.113281 0.09375 -0.1875 Z M 0.09375 -0.1875 "/></g></g></g><g fill="#000000" fill-opacity="1"><g transform="translate(15.083438, 16.661269)"><g><path d="M 0.09375 -0.1875 C 0.0820312 -0.207031 0.078125 -0.226562 0.078125 -0.25 C 0.078125 -0.28125 0.09375 -0.304688 0.125 -0.328125 C 0.132812 -0.335938 0.148438 -0.34375 0.171875 -0.34375 C 0.203125 -0.34375 0.226562 -0.332031 0.25 -0.3125 C 0.300781 -0.257812 0.351562 -0.21875 0.40625 -0.1875 C 0.457031 -0.164062 0.519531 -0.15625 0.59375 -0.15625 C 0.65625 -0.15625 0.707031 -0.164062 0.75 -0.1875 C 0.789062 -0.21875 0.8125 -0.265625 0.8125 -0.328125 C 0.8125 -0.378906 0.789062 -0.414062 0.75 -0.4375 C 0.707031 -0.46875 0.640625 -0.492188 0.546875 -0.515625 C 0.460938 -0.535156 0.390625 -0.554688 0.328125 -0.578125 C 0.273438 -0.609375 0.226562 -0.648438 0.1875 -0.703125 C 0.144531 -0.753906 0.125 -0.816406 0.125 -0.890625 C 0.125 -0.960938 0.144531 -1.023438 0.1875 -1.078125 C 0.226562 -1.128906 0.28125 -1.171875 0.34375 -1.203125 C 0.40625 -1.234375 0.476562 -1.25 0.5625 -1.25 C 0.632812 -1.25 0.707031 -1.234375 0.78125 -1.203125 C 0.851562 -1.179688 0.914062 -1.140625 0.96875 -1.078125 C 0.976562 -1.054688 0.984375 -1.035156 0.984375 -1.015625 C 0.984375 -0.984375 0.972656 -0.957031 0.953125 -0.9375 C 0.941406 -0.925781 0.921875 -0.921875 0.890625 -0.921875 C 0.867188 -0.921875 0.847656 -0.925781 0.828125 -0.9375 C 0.796875 -0.976562 0.753906 -1.007812 0.703125 -1.03125 C 0.660156 -1.050781 0.609375 -1.0625 0.546875 -1.0625 C 0.492188 -1.0625 0.445312 -1.046875 0.40625 -1.015625 C 0.363281 -0.992188 0.34375 -0.957031 0.34375 -0.90625 C 0.34375 -0.851562 0.363281 -0.8125 0.40625 -0.78125 C 0.457031 -0.757812 0.53125 -0.734375 0.625 -0.703125 C 0.707031 -0.679688 0.773438 -0.65625 0.828125 -0.625 C 0.878906 -0.601562 0.921875 -0.566406 0.953125 -0.515625 C 0.992188 -0.472656 1.015625 -0.410156 1.015625 -0.328125 C 1.015625 -0.253906 0.992188 -0.191406 0.953125 -0.140625 C 0.910156 -0.0859375 0.851562 -0.046875 0.78125 -0.015625 C 0.71875 0.00390625 0.648438 0.015625 0.578125 0.015625 C 0.484375 0.015625 0.394531 0 0.3125 -0.03125 C 0.226562 -0.0625 0.15625 -0.113281 0.09375 -0.1875 Z M 0.09375 -0.1875 "/></g></g></g><g fill="#000000" fill-opacity="1"><g transform="translate(16.336612, 16.661269)"><g><path d="M 0.375 -0.109375 C 0.375 -0.078125 0.363281 -0.0507812 0.34375 -0.03125 C 0.320312 -0.0078125 0.296875 0 0.265625 0 C 0.234375 0 0.207031 -0.0078125 0.1875 -0.03125 C 0.164062 -0.0507812 0.15625 -0.078125 0.15625 -0.109375 L 0.15625 -1.125 C 0.15625 -1.15625 0.164062 -1.179688 0.1875 -1.203125 C 0.207031 -1.222656 0.234375 -1.234375 0.265625 -1.234375 C 0.296875 -1.234375 0.320312 -1.222656 0.34375 -1.203125 C 0.363281 -1.179688 0.375 -1.15625 0.375 -1.125 Z M 0.265625 -1.390625 C 0.210938 -1.390625 0.175781 -1.394531 0.15625 -1.40625 C 0.132812 -1.425781 0.125 -1.453125 0.125 -1.484375 L 0.125 -1.53125 C 0.125 -1.5625 0.132812 -1.582031 0.15625 -1.59375 C 0.175781 -1.613281 0.210938 -1.625 0.265625 -1.625 C 0.304688 -1.625 0.335938 -1.613281 0.359375 -1.59375 C 0.378906 -1.582031 0.390625 -1.5625 0.390625 -1.53125 L 0.390625 -1.484375 C 0.390625 -1.453125 0.378906 -1.425781 0.359375 -1.40625 C 0.335938 -1.394531 0.304688 -1.390625 0.265625 -1.390625 Z M 0.265625 -1.390625 "/></g></g></g><g fill="#000000" fill-opacity="1"><g transform="translate(17.00641, 16.661269)"><g><path d="M 1.3125 -0.609375 C 1.3125 -0.484375 1.285156 -0.375 1.234375 -0.28125 C 1.179688 -0.1875 1.109375 -0.113281 1.015625 -0.0625 C 0.921875 -0.0078125 0.816406 0.015625 0.703125 0.015625 C 0.585938 0.015625 0.484375 -0.0078125 0.390625 -0.0625 C 0.296875 -0.113281 0.222656 -0.1875 0.171875 -0.28125 C 0.117188 -0.375 0.09375 -0.484375 0.09375 -0.609375 C 0.09375 -0.734375 0.117188 -0.84375 0.171875 -0.9375 C 0.222656 -1.03125 0.296875 -1.101562 0.390625 -1.15625 C 0.484375 -1.21875 0.585938 -1.25 0.703125 -1.25 C 0.816406 -1.25 0.921875 -1.21875 1.015625 -1.15625 C 1.109375 -1.101562 1.179688 -1.03125 1.234375 -0.9375 C 1.285156 -0.84375 1.3125 -0.734375 1.3125 -0.609375 Z M 1.09375 -0.609375 C 1.09375 -0.691406 1.078125 -0.765625 1.046875 -0.828125 C 1.015625 -0.898438 0.96875 -0.953125 0.90625 -0.984375 C 0.84375 -1.023438 0.773438 -1.046875 0.703125 -1.046875 C 0.628906 -1.046875 0.5625 -1.023438 0.5 -0.984375 C 0.445312 -0.953125 0.398438 -0.898438 0.359375 -0.828125 C 0.328125 -0.765625 0.3125 -0.691406 0.3125 -0.609375 C 0.3125 -0.523438 0.328125 -0.453125 0.359375 -0.390625 C 0.398438 -0.328125 0.445312 -0.273438 0.5 -0.234375 C 0.5625 -0.203125 0.628906 -0.1875 0.703125 -0.1875 C 0.773438 -0.1875 0.84375 -0.203125 0.90625 -0.234375 C 0.96875 -0.273438 1.015625 -0.328125 1.046875 -0.390625 C 1.078125 -0.453125 1.09375 -0.523438 1.09375 -0.609375 Z M 1.09375 -0.609375 "/></g></g></g><g fill="#000000" fill-opacity="1"><g transform="translate(18.560605, 16.661269)"><g><path d="M 0.78125 -1.25 C 1.0625 -1.25 1.203125 -1.082031 1.203125 -0.75 L 1.203125 -0.109375 C 1.203125 -0.078125 1.191406 -0.0507812 1.171875 -0.03125 C 1.148438 -0.0078125 1.125 0 1.09375 0 C 1.0625 0 1.035156 -0.0078125 1.015625 -0.03125 C 0.992188 -0.0507812 0.984375 -0.078125 0.984375 -0.109375 L 0.984375 -0.75 C 0.984375 -0.832031 0.960938 -0.898438 0.921875 -0.953125 C 0.878906 -1.015625 0.8125 -1.046875 0.71875 -1.046875 C 0.65625 -1.046875 0.597656 -1.03125 0.546875 -1 C 0.492188 -0.976562 0.453125 -0.941406 0.421875 -0.890625 C 0.398438 -0.847656 0.390625 -0.800781 0.390625 -0.75 L 0.390625 -0.109375 C 0.390625 -0.078125 0.378906 -0.0507812 0.359375 -0.03125 C 0.335938 -0.0078125 0.3125 0 0.28125 0 C 0.238281 0 0.207031 -0.0078125 0.1875 -0.03125 C 0.175781 -0.0507812 0.171875 -0.078125 0.171875 -0.109375 L 0.171875 -1.109375 C 0.171875 -1.140625 0.179688 -1.164062 0.203125 -1.1875 C 0.222656 -1.207031 0.25 -1.21875 0.28125 -1.21875 C 0.3125 -1.21875 0.335938 -1.207031 0.359375 -1.1875 C 0.378906 -1.164062 0.390625 -1.140625 0.390625 -1.109375 L 0.390625 -1.03125 C 0.429688 -1.09375 0.484375 -1.144531 0.546875 -1.1875 C 0.617188 -1.226562 0.695312 -1.25 0.78125 -1.25 Z M 0.78125 -1.25 "/></g></g></g><g fill="#000000" fill-opacity="1"><g transform="translate(20.075129, 16.661269)"><g><path d="M 1.15625 -1.234375 C 1.1875 -1.234375 1.210938 -1.222656 1.234375 -1.203125 C 1.253906 -1.179688 1.265625 -1.15625 1.265625 -1.125 L 1.265625 -0.109375 C 1.265625 -0.078125 1.253906 -0.0507812 1.234375 -0.03125 C 1.210938 -0.0078125 1.1875 0 1.15625 0 C 1.125 0 1.097656 -0.0078125 1.078125 -0.03125 C 1.054688 -0.0507812 1.046875 -0.078125 1.046875 -0.109375 L 1.046875 -0.171875 C 1.003906 -0.117188 0.945312 -0.0703125 0.875 -0.03125 C 0.8125 0 0.738281 0.015625 0.65625 0.015625 C 0.550781 0.015625 0.453125 -0.0078125 0.359375 -0.0625 C 0.273438 -0.113281 0.207031 -0.1875 0.15625 -0.28125 C 0.113281 -0.382812 0.09375 -0.492188 0.09375 -0.609375 C 0.09375 -0.734375 0.113281 -0.84375 0.15625 -0.9375 C 0.207031 -1.03125 0.273438 -1.101562 0.359375 -1.15625 C 0.453125 -1.21875 0.546875 -1.25 0.640625 -1.25 C 0.722656 -1.25 0.800781 -1.226562 0.875 -1.1875 C 0.945312 -1.15625 1.003906 -1.113281 1.046875 -1.0625 L 1.046875 -1.125 C 1.046875 -1.15625 1.054688 -1.179688 1.078125 -1.203125 C 1.097656 -1.222656 1.125 -1.234375 1.15625 -1.234375 Z M 0.6875 -0.1875 C 0.757812 -0.1875 0.820312 -0.203125 0.875 -0.234375 C 0.925781 -0.273438 0.96875 -0.328125 1 -0.390625 C 1.03125 -0.453125 1.046875 -0.523438 1.046875 -0.609375 C 1.046875 -0.691406 1.03125 -0.765625 1 -0.828125 C 0.96875 -0.890625 0.925781 -0.941406 0.875 -0.984375 C 0.820312 -1.023438 0.757812 -1.046875 0.6875 -1.046875 C 0.613281 -1.046875 0.546875 -1.023438 0.484375 -0.984375 C 0.429688 -0.953125 0.390625 -0.898438 0.359375 -0.828125 C 0.328125 -0.765625 0.3125 -0.691406 0.3125 -0.609375 C 0.3125 -0.523438 0.328125 -0.453125 0.359375 -0.390625 C 0.390625 -0.328125 0.429688 -0.273438 0.484375 -0.234375 C 0.546875 -0.203125 0.613281 -0.1875 0.6875 -0.1875 Z M 0.6875 -0.1875 "/></g></g></g><g fill="#000000" fill-opacity="1"><g transform="translate(21.647993, 16.661269)"><g><path d="M 0.40625 -0.109375 C 0.40625 -0.078125 0.394531 -0.0507812 0.375 -0.03125 C 0.351562 -0.0078125 0.328125 0 0.296875 0 C 0.265625 0 0.238281 -0.0078125 0.21875 -0.03125 C 0.195312 -0.0507812 0.1875 -0.078125 0.1875 -0.109375 L 0.1875 -1.609375 C 0.1875 -1.640625 0.195312 -1.664062 0.21875 -1.6875 C 0.238281 -1.707031 0.265625 -1.71875 0.296875 -1.71875 C 0.328125 -1.71875 0.351562 -1.707031 0.375 -1.6875 C 0.394531 -1.664062 0.40625 -1.640625 0.40625 -1.609375 Z M 0.40625 -0.109375 "/></g></g></g><g fill="#000000" fill-opacity="1"><g transform="translate(22.378464, 16.661269)"><g/></g></g><g fill="#000000" fill-opacity="1"><g transform="translate(23.164938, 16.661269)"><g><path d="M 1.359375 -1.53125 C 1.390625 -1.507812 1.40625 -1.476562 1.40625 -1.4375 C 1.40625 -1.414062 1.398438 -1.390625 1.390625 -1.359375 C 1.367188 -1.335938 1.34375 -1.328125 1.3125 -1.328125 C 1.289062 -1.328125 1.269531 -1.332031 1.25 -1.34375 C 1.144531 -1.394531 1.039062 -1.421875 0.9375 -1.421875 C 0.8125 -1.421875 0.703125 -1.394531 0.609375 -1.34375 C 0.523438 -1.289062 0.457031 -1.21875 0.40625 -1.125 C 0.363281 -1.039062 0.34375 -0.9375 0.34375 -0.8125 C 0.34375 -0.6875 0.367188 -0.578125 0.421875 -0.484375 C 0.472656 -0.390625 0.539062 -0.316406 0.625 -0.265625 C 0.71875 -0.222656 0.820312 -0.203125 0.9375 -0.203125 C 1.050781 -0.203125 1.15625 -0.226562 1.25 -0.28125 C 1.257812 -0.289062 1.273438 -0.296875 1.296875 -0.296875 C 1.335938 -0.296875 1.367188 -0.28125 1.390625 -0.25 C 1.398438 -0.226562 1.40625 -0.203125 1.40625 -0.171875 C 1.40625 -0.160156 1.398438 -0.144531 1.390625 -0.125 C 1.390625 -0.113281 1.378906 -0.101562 1.359375 -0.09375 C 1.296875 -0.0507812 1.226562 -0.0195312 1.15625 0 C 1.082031 0.0078125 1.007812 0.015625 0.9375 0.015625 C 0.78125 0.015625 0.640625 -0.015625 0.515625 -0.078125 C 0.390625 -0.140625 0.285156 -0.234375 0.203125 -0.359375 C 0.128906 -0.492188 0.09375 -0.644531 0.09375 -0.8125 C 0.09375 -0.96875 0.128906 -1.109375 0.203125 -1.234375 C 0.273438 -1.359375 0.375 -1.457031 0.5 -1.53125 C 0.632812 -1.601562 0.78125 -1.640625 0.9375 -1.640625 C 1.082031 -1.640625 1.222656 -1.601562 1.359375 -1.53125 Z M 1.359375 -1.53125 "/></g></g></g><g fill="#000000" fill-opacity="1"><g transform="translate(24.793805, 16.661269)"><g><path d="M 1.3125 -0.609375 C 1.3125 -0.484375 1.285156 -0.375 1.234375 -0.28125 C 1.179688 -0.1875 1.109375 -0.113281 1.015625 -0.0625 C 0.921875 -0.0078125 0.816406 0.015625 0.703125 0.015625 C 0.585938 0.015625 0.484375 -0.0078125 0.390625 -0.0625 C 0.296875 -0.113281 0.222656 -0.1875 0.171875 -0.28125 C 0.117188 -0.375 0.09375 -0.484375 0.09375 -0.609375 C 0.09375 -0.734375 0.117188 -0.84375 0.171875 -0.9375 C 0.222656 -1.03125 0.296875 -1.101562 0.390625 -1.15625 C 0.484375 -1.21875 0.585938 -1.25 0.703125 -1.25 C 0.816406 -1.25 0.921875 -1.21875 1.015625 -1.15625 C 1.109375 -1.101562 1.179688 -1.03125 1.234375 -0.9375 C 1.285156 -0.84375 1.3125 -0.734375 1.3125 -0.609375 Z M 1.09375 -0.609375 C 1.09375 -0.691406 1.078125 -0.765625 1.046875 -0.828125 C 1.015625 -0.898438 0.96875 -0.953125 0.90625 -0.984375 C 0.84375 -1.023438 0.773438 -1.046875 0.703125 -1.046875 C 0.628906 -1.046875 0.5625 -1.023438 0.5 -0.984375 C 0.445312 -0.953125 0.398438 -0.898438 0.359375 -0.828125 C 0.328125 -0.765625 0.3125 -0.691406 0.3125 -0.609375 C 0.3125 -0.523438 0.328125 -0.453125 0.359375 -0.390625 C 0.398438 -0.328125 0.445312 -0.273438 0.5 -0.234375 C 0.5625 -0.203125 0.628906 -0.1875 0.703125 -0.1875 C 0.773438 -0.1875 0.84375 -0.203125 0.90625 -0.234375 C 0.96875 -0.273438 1.015625 -0.328125 1.046875 -0.390625 C 1.078125 -0.453125 1.09375 -0.523438 1.09375 -0.609375 Z M 1.09375 -0.609375 "/></g></g></g><g fill="#000000" fill-opacity="1"><g transform="translate(26.347999, 16.661269)"><g><path d="M 0.765625 -1.25 C 0.804688 -1.25 0.84375 -1.238281 0.875 -1.21875 C 0.90625 -1.195312 0.921875 -1.171875 0.921875 -1.140625 C 0.921875 -1.097656 0.910156 -1.066406 0.890625 -1.046875 C 0.867188 -1.035156 0.847656 -1.03125 0.828125 -1.03125 C 0.804688 -1.03125 0.785156 -1.03125 0.765625 -1.03125 C 0.722656 -1.039062 0.695312 -1.046875 0.6875 -1.046875 C 0.632812 -1.046875 0.582031 -1.03125 0.53125 -1 C 0.488281 -0.96875 0.453125 -0.921875 0.421875 -0.859375 C 0.398438 -0.804688 0.390625 -0.742188 0.390625 -0.671875 L 0.390625 -0.109375 C 0.390625 -0.078125 0.378906 -0.0507812 0.359375 -0.03125 C 0.335938 -0.0078125 0.3125 0 0.28125 0 C 0.238281 0 0.207031 -0.0078125 0.1875 -0.03125 C 0.175781 -0.0507812 0.171875 -0.078125 0.171875 -0.109375 L 0.171875 -1.109375 C 0.171875 -1.140625 0.179688 -1.164062 0.203125 -1.1875 C 0.222656 -1.207031 0.25 -1.21875 0.28125 -1.21875 C 0.3125 -1.21875 0.335938 -1.207031 0.359375 -1.1875 C 0.378906 -1.164062 0.390625 -1.140625 0.390625 -1.109375 L 0.390625 -0.984375 C 0.421875 -1.066406 0.46875 -1.128906 0.53125 -1.171875 C 0.601562 -1.222656 0.679688 -1.25 0.765625 -1.25 Z M 0.765625 -1.25 "/></g></g></g><g fill="#000000" fill-opacity="1"><g transform="translate(27.45183, 16.661269)"><g><path d="M 0.78125 -1.234375 C 0.882812 -1.234375 0.976562 -1.207031 1.0625 -1.15625 C 1.144531 -1.101562 1.210938 -1.03125 1.265625 -0.9375 C 1.316406 -0.84375 1.34375 -0.734375 1.34375 -0.609375 C 1.34375 -0.484375 1.316406 -0.375 1.265625 -0.28125 C 1.210938 -0.1875 1.144531 -0.113281 1.0625 -0.0625 C 0.976562 -0.0078125 0.882812 0.015625 0.78125 0.015625 C 0.695312 0.015625 0.617188 0 0.546875 -0.03125 C 0.484375 -0.0703125 0.429688 -0.113281 0.390625 -0.15625 L 0.390625 0.359375 C 0.390625 0.390625 0.378906 0.414062 0.359375 0.4375 C 0.335938 0.457031 0.3125 0.46875 0.28125 0.46875 C 0.25 0.46875 0.222656 0.457031 0.203125 0.4375 C 0.179688 0.414062 0.171875 0.390625 0.171875 0.359375 L 0.171875 -1.109375 C 0.171875 -1.140625 0.175781 -1.164062 0.1875 -1.1875 C 0.207031 -1.207031 0.238281 -1.21875 0.28125 -1.21875 C 0.3125 -1.21875 0.335938 -1.207031 0.359375 -1.1875 C 0.378906 -1.164062 0.390625 -1.140625 0.390625 -1.109375 L 0.390625 -1.046875 C 0.421875 -1.097656 0.472656 -1.140625 0.546875 -1.171875 C 0.617188 -1.210938 0.695312 -1.234375 0.78125 -1.234375 Z M 0.75 -0.1875 C 0.820312 -0.1875 0.882812 -0.203125 0.9375 -0.234375 C 1 -0.273438 1.046875 -0.328125 1.078125 -0.390625 C 1.109375 -0.453125 1.125 -0.523438 1.125 -0.609375 C 1.125 -0.691406 1.109375 -0.765625 1.078125 -0.828125 C 1.046875 -0.890625 1 -0.9375 0.9375 -0.96875 C 0.882812 -1.007812 0.820312 -1.03125 0.75 -1.03125 C 0.675781 -1.03125 0.609375 -1.007812 0.546875 -0.96875 C 0.492188 -0.9375 0.453125 -0.890625 0.421875 -0.828125 C 0.390625 -0.765625 0.375 -0.691406 0.375 -0.609375 C 0.375 -0.523438 0.390625 -0.453125 0.421875 -0.390625 C 0.453125 -0.328125 0.492188 -0.273438 0.546875 -0.234375 C 0.609375 -0.203125 0.675781 -0.1875 0.75 -0.1875 Z M 0.75 -0.1875 "/></g></g></g><g fill="#000000" fill-opacity="1"><g transform="translate(29.024692, 16.661269)"><g><path d="M 1.3125 -0.609375 C 1.3125 -0.484375 1.285156 -0.375 1.234375 -0.28125 C 1.179688 -0.1875 1.109375 -0.113281 1.015625 -0.0625 C 0.921875 -0.0078125 0.816406 0.015625 0.703125 0.015625 C 0.585938 0.015625 0.484375 -0.0078125 0.390625 -0.0625 C 0.296875 -0.113281 0.222656 -0.1875 0.171875 -0.28125 C 0.117188 -0.375 0.09375 -0.484375 0.09375 -0.609375 C 0.09375 -0.734375 0.117188 -0.84375 0.171875 -0.9375 C 0.222656 -1.03125 0.296875 -1.101562 0.390625 -1.15625 C 0.484375 -1.21875 0.585938 -1.25 0.703125 -1.25 C 0.816406 -1.25 0.921875 -1.21875 1.015625 -1.15625 C 1.109375 -1.101562 1.179688 -1.03125 1.234375 -0.9375 C 1.285156 -0.84375 1.3125 -0.734375 1.3125 -0.609375 Z M 1.09375 -0.609375 C 1.09375 -0.691406 1.078125 -0.765625 1.046875 -0.828125 C 1.015625 -0.898438 0.96875 -0.953125 0.90625 -0.984375 C 0.84375 -1.023438 0.773438 -1.046875 0.703125 -1.046875 C 0.628906 -1.046875 0.5625 -1.023438 0.5 -0.984375 C 0.445312 -0.953125 0.398438 -0.898438 0.359375 -0.828125 C 0.328125 -0.765625 0.3125 -0.691406 0.3125 -0.609375 C 0.3125 -0.523438 0.328125 -0.453125 0.359375 -0.390625 C 0.398438 -0.328125 0.445312 -0.273438 0.5 -0.234375 C 0.5625 -0.203125 0.628906 -0.1875 0.703125 -0.1875 C 0.773438 -0.1875 0.84375 -0.203125 0.90625 -0.234375 C 0.96875 -0.273438 1.015625 -0.328125 1.046875 -0.390625 C 1.078125 -0.453125 1.09375 -0.523438 1.09375 -0.609375 Z M 1.09375 -0.609375 "/></g></g></g><g fill="#000000" fill-opacity="1"><g transform="translate(30.578886, 16.661269)"><g><path d="M 0.765625 -1.25 C 0.804688 -1.25 0.84375 -1.238281 0.875 -1.21875 C 0.90625 -1.195312 0.921875 -1.171875 0.921875 -1.140625 C 0.921875 -1.097656 0.910156 -1.066406 0.890625 -1.046875 C 0.867188 -1.035156 0.847656 -1.03125 0.828125 -1.03125 C 0.804688 -1.03125 0.785156 -1.03125 0.765625 -1.03125 C 0.722656 -1.039062 0.695312 -1.046875 0.6875 -1.046875 C 0.632812 -1.046875 0.582031 -1.03125 0.53125 -1 C 0.488281 -0.96875 0.453125 -0.921875 0.421875 -0.859375 C 0.398438 -0.804688 0.390625 -0.742188 0.390625 -0.671875 L 0.390625 -0.109375 C 0.390625 -0.078125 0.378906 -0.0507812 0.359375 -0.03125 C 0.335938 -0.0078125 0.3125 0 0.28125 0 C 0.238281 0 0.207031 -0.0078125 0.1875 -0.03125 C 0.175781 -0.0507812 0.171875 -0.078125 0.171875 -0.109375 L 0.171875 -1.109375 C 0.171875 -1.140625 0.179688 -1.164062 0.203125 -1.1875 C 0.222656 -1.207031 0.25 -1.21875 0.28125 -1.21875 C 0.3125 -1.21875 0.335938 -1.207031 0.359375 -1.1875 C 0.378906 -1.164062 0.390625 -1.140625 0.390625 -1.109375 L 0.390625 -0.984375 C 0.421875 -1.066406 0.46875 -1.128906 0.53125 -1.171875 C 0.601562 -1.222656 0.679688 -1.25 0.765625 -1.25 Z M 0.765625 -1.25 "/></g></g></g><g fill="#000000" fill-opacity="1"><g transform="translate(31.682717, 16.661269)"><g><path d="M 1.15625 -1.234375 C 1.1875 -1.234375 1.210938 -1.222656 1.234375 -1.203125 C 1.253906 -1.179688 1.265625 -1.15625 1.265625 -1.125 L 1.265625 -0.109375 C 1.265625 -0.078125 1.253906 -0.0507812 1.234375 -0.03125 C 1.210938 -0.0078125 1.1875 0 1.15625 0 C 1.125 0 1.097656 -0.0078125 1.078125 -0.03125 C 1.054688 -0.0507812 1.046875 -0.078125 1.046875 -0.109375 L 1.046875 -0.171875 C 1.003906 -0.117188 0.945312 -0.0703125 0.875 -0.03125 C 0.8125 0 0.738281 0.015625 0.65625 0.015625 C 0.550781 0.015625 0.453125 -0.0078125 0.359375 -0.0625 C 0.273438 -0.113281 0.207031 -0.1875 0.15625 -0.28125 C 0.113281 -0.382812 0.09375 -0.492188 0.09375 -0.609375 C 0.09375 -0.734375 0.113281 -0.84375 0.15625 -0.9375 C 0.207031 -1.03125 0.273438 -1.101562 0.359375 -1.15625 C 0.453125 -1.21875 0.546875 -1.25 0.640625 -1.25 C 0.722656 -1.25 0.800781 -1.226562 0.875 -1.1875 C 0.945312 -1.15625 1.003906 -1.113281 1.046875 -1.0625 L 1.046875 -1.125 C 1.046875 -1.15625 1.054688 -1.179688 1.078125 -1.203125 C 1.097656 -1.222656 1.125 -1.234375 1.15625 -1.234375 Z M 0.6875 -0.1875 C 0.757812 -0.1875 0.820312 -0.203125 0.875 -0.234375 C 0.925781 -0.273438 0.96875 -0.328125 1 -0.390625 C 1.03125 -0.453125 1.046875 -0.523438 1.046875 -0.609375 C 1.046875 -0.691406 1.03125 -0.765625 1 -0.828125 C 0.96875 -0.890625 0.925781 -0.941406 0.875 -0.984375 C 0.820312 -1.023438 0.757812 -1.046875 0.6875 -1.046875 C 0.613281 -1.046875 0.546875 -1.023438 0.484375 -0.984375 C 0.429688 -0.953125 0.390625 -0.898438 0.359375 -0.828125 C 0.328125 -0.765625 0.3125 -0.691406 0.3125 -0.609375 C 0.3125 -0.523438 0.328125 -0.453125 0.359375 -0.390625 C 0.390625 -0.328125 0.429688 -0.273438 0.484375 -0.234375 C 0.546875 -0.203125 0.613281 -0.1875 0.6875 -0.1875 Z M 0.6875 -0.1875 "/></g></g></g><g fill="#000000" fill-opacity="1"><g transform="translate(33.25558, 16.661269)"><g><path d="M 0.5 -1 L 0.5 -0.3125 C 0.5 -0.226562 0.53125 -0.1875 0.59375 -0.1875 C 0.601562 -0.1875 0.617188 -0.1875 0.640625 -0.1875 C 0.660156 -0.195312 0.675781 -0.203125 0.6875 -0.203125 C 0.707031 -0.203125 0.722656 -0.191406 0.734375 -0.171875 C 0.753906 -0.160156 0.765625 -0.144531 0.765625 -0.125 C 0.765625 -0.0820312 0.742188 -0.0507812 0.703125 -0.03125 C 0.671875 -0.0078125 0.628906 0 0.578125 0 C 0.523438 0 0.476562 -0.00390625 0.4375 -0.015625 C 0.394531 -0.0234375 0.359375 -0.0507812 0.328125 -0.09375 C 0.296875 -0.144531 0.28125 -0.210938 0.28125 -0.296875 L 0.28125 -1 L 0.140625 -1 C 0.109375 -1 0.0820312 -1.007812 0.0625 -1.03125 C 0.0390625 -1.050781 0.03125 -1.078125 0.03125 -1.109375 C 0.03125 -1.140625 0.0390625 -1.160156 0.0625 -1.171875 C 0.0820312 -1.191406 0.109375 -1.203125 0.140625 -1.203125 L 0.28125 -1.203125 L 0.28125 -1.40625 C 0.28125 -1.4375 0.289062 -1.460938 0.3125 -1.484375 C 0.332031 -1.503906 0.359375 -1.515625 0.390625 -1.515625 C 0.421875 -1.515625 0.445312 -1.503906 0.46875 -1.484375 C 0.488281 -1.460938 0.5 -1.4375 0.5 -1.40625 L 0.5 -1.203125 L 0.6875 -1.203125 C 0.71875 -1.203125 0.742188 -1.191406 0.765625 -1.171875 C 0.785156 -1.148438 0.796875 -1.128906 0.796875 -1.109375 C 0.796875 -1.078125 0.785156 -1.050781 0.765625 -1.03125 C 0.742188 -1.007812 0.71875 -1 0.6875 -1 Z M 0.5 -1 "/></g></g></g><g fill="#000000" fill-opacity="1"><g transform="translate(34.282405, 16.661269)"><g><path d="M 0.375 -0.109375 C 0.375 -0.078125 0.363281 -0.0507812 0.34375 -0.03125 C 0.320312 -0.0078125 0.296875 0 0.265625 0 C 0.234375 0 0.207031 -0.0078125 0.1875 -0.03125 C 0.164062 -0.0507812 0.15625 -0.078125 0.15625 -0.109375 L 0.15625 -1.125 C 0.15625 -1.15625 0.164062 -1.179688 0.1875 -1.203125 C 0.207031 -1.222656 0.234375 -1.234375 0.265625 -1.234375 C 0.296875 -1.234375 0.320312 -1.222656 0.34375 -1.203125 C 0.363281 -1.179688 0.375 -1.15625 0.375 -1.125 Z M 0.265625 -1.390625 C 0.210938 -1.390625 0.175781 -1.394531 0.15625 -1.40625 C 0.132812 -1.425781 0.125 -1.453125 0.125 -1.484375 L 0.125 -1.53125 C 0.125 -1.5625 0.132812 -1.582031 0.15625 -1.59375 C 0.175781 -1.613281 0.210938 -1.625 0.265625 -1.625 C 0.304688 -1.625 0.335938 -1.613281 0.359375 -1.59375 C 0.378906 -1.582031 0.390625 -1.5625 0.390625 -1.53125 L 0.390625 -1.484375 C 0.390625 -1.453125 0.378906 -1.425781 0.359375 -1.40625 C 0.335938 -1.394531 0.304688 -1.390625 0.265625 -1.390625 Z M 0.265625 -1.390625 "/></g></g></g><g fill="#000000" fill-opacity="1"><g transform="translate(34.952204, 16.661269)"><g><path d="M 1.3125 -0.609375 C 1.3125 -0.484375 1.285156 -0.375 1.234375 -0.28125 C 1.179688 -0.1875 1.109375 -0.113281 1.015625 -0.0625 C 0.921875 -0.0078125 0.816406 0.015625 0.703125 0.015625 C 0.585938 0.015625 0.484375 -0.0078125 0.390625 -0.0625 C 0.296875 -0.113281 0.222656 -0.1875 0.171875 -0.28125 C 0.117188 -0.375 0.09375 -0.484375 0.09375 -0.609375 C 0.09375 -0.734375 0.117188 -0.84375 0.171875 -0.9375 C 0.222656 -1.03125 0.296875 -1.101562 0.390625 -1.15625 C 0.484375 -1.21875 0.585938 -1.25 0.703125 -1.25 C 0.816406 -1.25 0.921875 -1.21875 1.015625 -1.15625 C 1.109375 -1.101562 1.179688 -1.03125 1.234375 -0.9375 C 1.285156 -0.84375 1.3125 -0.734375 1.3125 -0.609375 Z M 1.09375 -0.609375 C 1.09375 -0.691406 1.078125 -0.765625 1.046875 -0.828125 C 1.015625 -0.898438 0.96875 -0.953125 0.90625 -0.984375 C 0.84375 -1.023438 0.773438 -1.046875 0.703125 -1.046875 C 0.628906 -1.046875 0.5625 -1.023438 0.5 -0.984375 C 0.445312 -0.953125 0.398438 -0.898438 0.359375 -0.828125 C 0.328125 -0.765625 0.3125 -0.691406 0.3125 -0.609375 C 0.3125 -0.523438 0.328125 -0.453125 0.359375 -0.390625 C 0.398438 -0.328125 0.445312 -0.273438 0.5 -0.234375 C 0.5625 -0.203125 0.628906 -0.1875 0.703125 -0.1875 C 0.773438 -0.1875 0.84375 -0.203125 0.90625 -0.234375 C 0.96875 -0.273438 1.015625 -0.328125 1.046875 -0.390625 C 1.078125 -0.453125 1.09375 -0.523438 1.09375 -0.609375 Z M 1.09375 -0.609375 "/></g></g></g><g fill="#000000" fill-opacity="1"><g transform="translate(36.506399, 16.661269)"><g><path d="M 0.78125 -1.25 C 1.0625 -1.25 1.203125 -1.082031 1.203125 -0.75 L 1.203125 -0.109375 C 1.203125 -0.078125 1.191406 -0.0507812 1.171875 -0.03125 C 1.148438 -0.0078125 1.125 0 1.09375 0 C 1.0625 0 1.035156 -0.0078125 1.015625 -0.03125 C 0.992188 -0.0507812 0.984375 -0.078125 0.984375 -0.109375 L 0.984375 -0.75 C 0.984375 -0.832031 0.960938 -0.898438 0.921875 -0.953125 C 0.878906 -1.015625 0.8125 -1.046875 0.71875 -1.046875 C 0.65625 -1.046875 0.597656 -1.03125 0.546875 -1 C 0.492188 -0.976562 0.453125 -0.941406 0.421875 -0.890625 C 0.398438 -0.847656 0.390625 -0.800781 0.390625 -0.75 L 0.390625 -0.109375 C 0.390625 -0.078125 0.378906 -0.0507812 0.359375 -0.03125 C 0.335938 -0.0078125 0.3125 0 0.28125 0 C 0.238281 0 0.207031 -0.0078125 0.1875 -0.03125 C 0.175781 -0.0507812 0.171875 -0.078125 0.171875 -0.109375 L 0.171875 -1.109375 C 0.171875 -1.140625 0.179688 -1.164062 0.203125 -1.1875 C 0.222656 -1.207031 0.25 -1.21875 0.28125 -1.21875 C 0.3125 -1.21875 0.335938 -1.207031 0.359375 -1.1875 C 0.378906 -1.164062 0.390625 -1.140625 0.390625 -1.109375 L 0.390625 -1.03125 C 0.429688 -1.09375 0.484375 -1.144531 0.546875 -1.1875 C 0.617188 -1.226562 0.695312 -1.25 0.78125 -1.25 Z M 0.78125 -1.25 "/></g></g></g></svg>